<?xml version="1.0" encoding="iso-8859-1"?>
<!-- Generator: Adobe Illustrator 19.0.0, SVG Export Plug-In . SVG Version: 6.00 Build 0)  -->
<svg version="1.1" id="Layer_1" xmlns="http://www.w3.org/2000/svg" xmlns:xlink="http://www.w3.org/1999/xlink" x="0px" y="0px"
     viewBox="0 0 512 512" style="enable-background:new 0 0 512 512;" xml:space="preserve">
<g>
    <g>
        <path d="M365.99,327.387v-38.38c0-1.888-0.047-3.765-0.132-5.632h-61.012v-30h55.818c-14.322-46.638-55.92-80.603-104.664-80.603
            c-48.75,0-90.346,33.965-104.668,80.603h55.819v30h-61.013c-0.085,1.867-0.132,3.744-0.132,5.632v38.378h61.145v30h-61.145v38.379
            c0,1.889,0.047,3.767,0.132,5.634h61.013v30h-55.818C165.655,478.035,207.251,512,256,512c48.744,0,90.34-33.965,104.663-80.603
            h-55.818v-30h61.013c0.085-1.867,0.132-3.745,0.132-5.634v-38.376h-61.145v-30H365.99z"/>
    </g>
</g>
<g>
    <g>
        <path d="M271,114.051V0h-30v114.051c-83.739,7.879-149.569,81.027-149.569,169.82v81.21h30v-81.21
            c0-77.492,60.368-140.536,134.569-140.536s134.569,63.044,134.569,140.536v81.21h30v-81.21
            C420.569,195.077,354.739,121.929,271,114.051z"/>
    </g>
</g>
</svg>
