<?xml version="1.0" encoding="iso-8859-1"?>
<!-- Generator: Adobe Illustrator 21.0.0, SVG Export Plug-In . SVG Version: 6.00 Build 0)  -->
<svg version="1.1" id="Capa_1" xmlns="http://www.w3.org/2000/svg" xmlns:xlink="http://www.w3.org/1999/xlink" x="0px" y="0px"
	 viewBox="0 0 512.063 512.063" style="enable-background:new 0 0 512.063 512.063;" xml:space="preserve">
<g transform="translate(0 -1)">
	<g>
		<g>
			<path d="M466.317,439.92h-9.143v36.571c0,5.049-4.093,9.143-9.143,9.143c-5.049,0-9.143-4.093-9.143-9.143V439.92h-18.286v36.571
				c0,5.049-4.093,9.143-9.143,9.143s-9.143-4.093-9.143-9.143V439.92h-18.286v36.571c0,5.049-4.093,9.143-9.143,9.143
				c-5.049,0-9.143-4.093-9.143-9.143V439.92h-36.571v36.571c0,5.049-4.093,9.143-9.143,9.143c-5.049,0-9.143-4.093-9.143-9.143
				V439.92h-18.286v36.571c0,5.049-4.093,9.143-9.143,9.143s-9.143-4.093-9.143-9.143V439.92h-36.571v36.571
				c0,5.049-4.093,9.143-9.143,9.143c-5.049,0-9.143-4.093-9.143-9.143V439.92h-18.286v36.571c0,5.049-4.093,9.143-9.143,9.143
				s-9.143-4.093-9.143-9.143V439.92h-18.286v36.571c0,5.049-4.093,9.143-9.143,9.143s-9.143-4.093-9.143-9.143V439.92h-36.571
				v36.571c0,5.049-4.093,9.143-9.143,9.143c-5.049,0-9.143-4.093-9.143-9.143V439.92H73.174v36.571
				c0,5.049-4.093,9.143-9.143,9.143s-9.143-4.093-9.143-9.143V439.92h-9.143c-5.049,0-9.143,4.093-9.143,9.143v64H475.46v-64
				C475.46,444.013,471.366,439.92,466.317,439.92z"/>
			<path d="M393.174,229.634c-36.405,0.017-68.068-24.941-76.553-60.343l-11.968-49.865C286.392,43.3,214.06-7.121,136.317,2.081
				S0.014,77.2,0.031,155.485v357.577h18.286v-64c0-15.148,12.28-27.429,27.429-27.429h420.571c15.148,0,27.429,12.28,27.429,27.429
				v64h18.286V348.491C511.956,282.879,458.786,229.71,393.174,229.634z M109.875,41.227c-0.298,3.297-2.355,6.175-5.377,7.525
				c-41.32,19.509-67.738,61.04-67.895,106.734V311.92c0,5.049-4.093,9.143-9.143,9.143c-5.049,0-9.143-4.093-9.143-9.143V155.485
				c0.17-52.771,30.673-100.739,78.391-123.273c2.966-1.47,6.495-1.223,9.226,0.647C108.665,34.729,110.173,37.93,109.875,41.227z"
				/>
		</g>
	</g>
</g>
<g>
</g>
<g>
</g>
<g>
</g>
<g>
</g>
<g>
</g>
<g>
</g>
<g>
</g>
<g>
</g>
<g>
</g>
<g>
</g>
<g>
</g>
<g>
</g>
<g>
</g>
<g>
</g>
<g>
</g>
</svg>
