<svg height="618pt" viewBox="-77 -19 618 618.66461" width="618pt" xmlns="http://www.w3.org/2000/svg"><path d="m-3.570312 30.820312 33.6875 4.105469v-34.925781l-33.6875 4.925781zm0 0"/><path d="m111.207031 154.011719h-3.742187c-8.941406 0-16.21875 7.832031-16.21875 16.773437v255.339844c.011718 4.285156 1.730468 8.394531 4.773437 11.410156 3.046875 3.015625 7.164063 4.699219 11.445313 4.667969h4.054687c-.203125-3.742187-.3125-6.632813-.3125-10.042969zm0 0"/><path d="m294.601562 435.308594c-.011718 23.058594-18.691406 41.753906-41.753906 41.792968-.476562 0-.960937-.015624-1.4375-.027343-22.554687-.6875-40.464844-19.203125-40.394531-41.765625v-149.050782h22.722656c4.367188 9.980469 13.617188 15.542969 24.296875 15.542969 7.136719.027344 13.988282-2.785156 19.046875-7.820312 5.058594-5.035157 7.910157-11.871094 7.925781-19.011719 0-14.925781-12.042968-27.066406-26.972656-27.183594-12.898437 0-23.707031 9.777344-26.347656 21.003906h-20.671875v-44.910156h22.722656c4.367188 9.980469 13.617188 15.542969 24.296875 15.542969 7.136719.027344 13.988282-2.785156 19.046875-7.820313 5.058594-5.035156 7.910157-11.871093 7.925781-19.011718 0-14.925782-12.042968-27.066406-26.972656-27.183594-12.898437 0-23.707031 9.777344-26.347656 21.003906h-20.671875v-44.910156h22.722656c4.367188 9.980469 13.617188 15.542969 24.296875 15.542969 7.136719.027343 13.988282-2.785157 19.046875-7.820313 5.058594-5.035156 7.910157-11.871094 7.925781-19.011718 0-14.925782-12.042968-27.066407-26.972656-27.183594-12.898437 0-23.707031 9.777344-26.347656 21.003906h-20.671875v-12.539062c.042969-10.902344-1.214844-21.769532-3.746094-32.371094h26.46875c4.367188 9.980468 13.617188 15.542968 24.296875 15.542968 7.136719.027344 13.988282-2.785156 19.046875-7.820312 5.058594-5.035156 7.910157-11.871094 7.925781-19.011719 0-14.925781-12.042968-27.066406-26.972656-27.183593-12.898437 0-23.707031 9.777343-26.347656 21.003906h-28.15625c-.6875.097656-1.367188.273437-2.015625.527344-9.460937-22.050782-26.007813-40.46875-48.308594-53.378907-24.707031-14.300781-55.839843-22.003906-90.03125-22.003906h-15.59375v21.210937h9.355469c18.972656 0 37.109375 9.015626 51.054688 24.867188 13.074218 14.851562 20.414062 33.886719 20.683593 53.667969v325.617187c-.011719 81.652344 66.183594 147.847656 147.835938 147.839844 39.59375 0 79.597656-15.894531 109.746093-43.609375 31.003907-28.492187 48.074219-65.507813 48.074219-104.230469v-56.078125h-139.730469zm0 0"/><path d="m287.117188 323.683594h157.195312c8.957031 0 16.21875 7.261718 16.21875 16.21875v2.496094c0 8.957031-7.261719 16.21875-16.21875 16.21875h-157.195312c-8.957032 0-16.21875-7.261719-16.21875-16.21875v-2.496094c0-8.957032 7.261718-16.21875 16.21875-16.21875zm0 0"/></svg>